# xmcd
#
# Track frame offsets: 
#        150
#        10683
#        23516
#        36089
#        51217
#        62756
#        74525
#        86209
#        98317
#        108136
#        121165
#        131405
#        141892
#        152224
#
# Disc length: 2204 seconds
#
# Revision: 0
# Processed by: cddbd v1.5.2PL0 Copyright (c) Steve Scherf et al.
# Submitted via: ExactAudioCopy v0.99pb4
#
DISCID=ad089a0e
DTITLE=Ray Charles - Hallelujah I Love Her So
DYEAR=2008
DGENRE=Soul
TTITLE0=Blackjack
TTITLE1=Greenbacks
TTITLE2=Mary Ann
TTITLE3=Drown In My Own Tears
TTITLE4=Hallelujah I Love Her So
TTITLE5=What Would I Do Without You
TTITLE6=Lonely Avenue
TTITLE7=Leave My Woman Alone
TTITLE8=I Want To Know
TTITLE9=Ain't That Love
TTITLE10=It's All Right
TTITLE11=Get On The Right Track Baby
TTITLE12=Swanee River Rock
TTITLE13=I Want A Little Girl
EXTD=
EXTT0=
EXTT1=
EXTT2=
EXTT3=
EXTT4=
EXTT5=
EXTT6=
EXTT7=
EXTT8=
EXTT9=
EXTT10=
EXTT11=
EXTT12=
EXTT13=
PLAYORDER=
